<svg width="42" height="42" viewBox="0 0 42 42" fill="none" xmlns="http://www.w3.org/2000/svg">
<path fill-rule="evenodd" clip-rule="evenodd" d="M27.9209 22.4725C28.9137 24.006 30.0709 23.2712 30.5396 23.6898C30.9833 24.0864 33.856 30.5765 34.2334 31.3871C33.497 30.2729 30.3662 25.1323 29.7293 24.4918C28.5591 24.2673 27.7403 23.9005 27.1812 22.8325L27.9209 22.4725Z" fill="#1F1F1F"/>
<path fill-rule="evenodd" clip-rule="evenodd" d="M11.4371 35.8586C13.1753 36.1954 14.545 35.5957 15.3412 34.1049L15.5462 33.7378C15.8749 35.9262 13.2526 37.001 11.1734 36.7819C10.9039 36.713 10.7447 36.4504 10.8174 36.1954C10.89 35.9404 11.1675 35.7897 11.4371 35.8586Z" fill="#1F1F1F"/>
<path fill-rule="evenodd" clip-rule="evenodd" d="M19.9246 37.9716C21.5153 37.4281 22.2251 36.24 21.9213 34.5466L21.8531 34.1252C23.4882 35.8883 22.0825 38.0982 20.2951 38.9098C20.0381 38.9793 19.7469 38.8257 19.6444 38.5668C19.5423 38.3074 19.6677 38.0413 19.9246 37.9716Z" fill="#1F1F1F"/>
<path fill-rule="evenodd" clip-rule="evenodd" d="M20.2675 3.88464C9.07419 3.88464 0 12.4734 0 23.068C0 27.8933 1.88263 32.3019 4.99037 35.6734L7.9701 33.2682C6.62551 31.9397 5.79937 30.1378 5.79937 28.1528C5.79937 24.0682 9.29787 20.7568 13.6134 20.7568C16.8145 20.7568 19.5654 22.5789 20.7732 25.1868L39.2003 16.2109C36.2845 9.00296 28.9079 3.88464 20.2675 3.88464Z" fill="#007CFA"/>
<path fill-rule="evenodd" clip-rule="evenodd" d="M2.13672 31.3501C2.4591 32.9594 4.50273 35.378 4.96971 35.873C10.4372 41.6711 17.3193 42.517 22.7323 41.3324C27.9338 40.1939 31.4649 37.2509 32.4038 34.4156C32.7365 33.4111 32.8119 32.4395 32.6645 31.5748C31.9025 27.1127 26.0872 27.2317 25.9944 31.7488C25.9554 33.6461 25.6128 35.8464 21.8877 37.1199C19.6792 37.8752 16.9813 38.1688 14.0725 37.1029C10.6759 35.8583 7.59792 33.7481 6.19635 31.4173C1.67868 23.9059 3.11338 28.0565 2.13672 31.3501Z" fill="#007CFA"/>
<path fill-rule="evenodd" clip-rule="evenodd" d="M15.1543 34.6492C16.6308 32.2862 13.6928 31.426 12.5951 33.045C11.4977 34.6643 7.20827 34.4025 6.25503 30.7851C6.17273 30.4731 6.10986 35.7301 11.3389 36.0224C12.6854 36.0976 14.4871 35.7171 15.1543 34.6492Z" fill="#007CFA"/>
<path fill-rule="evenodd" clip-rule="evenodd" d="M36.5096 17.7343C33.3765 11.8068 28.3623 7.8767 21.1833 7.57157C18.5801 7.46104 15.9826 7.85024 13.5577 8.75877C11.257 9.62061 9.16793 10.93 7.44837 12.6158C4.0571 15.9402 2.44654 20.3653 2.7493 24.9606C2.8781 26.9191 3.42111 29.2725 4.05577 31.1593C4.26802 31.7911 4.54657 32.4583 4.85656 33.1225C5.14484 33.7398 4.83504 34.0126 4.42958 33.395C4.04015 32.8017 3.68576 32.182 3.42092 31.6303C2.57992 29.8764 2.039 27.9299 1.75968 26.0462C1.371 23.4242 1.55734 20.773 2.39339 18.2421C3.17228 15.8851 4.48446 13.7265 6.23658 11.897C10.2762 7.67888 16.1749 5.63658 22.1382 6.08364C29.6072 6.64304 34.8324 10.8088 38.1676 16.9677L38.1699 16.9717L38.1721 16.9757C38.3915 17.4106 38.1969 17.9327 37.7374 18.1404C37.278 18.3484 36.7264 18.1641 36.5096 17.7343Z" fill="white"/>
<path fill-rule="evenodd" clip-rule="evenodd" d="M33.6115 18.2442C30.5899 12.3868 24.9571 9.12693 18.0299 9.88468C13.84 10.3431 10.753 12.0053 7.88858 14.8917L7.88419 14.8957L7.58833 15.1839C7.18856 15.5727 6.76292 15.2125 7.00165 14.8286C9.20669 11.2782 14.1668 9.0544 18.3746 8.61816C25.7544 7.8532 31.7865 11.3879 35.0937 17.562L35.0956 17.5654L35.0975 17.569C35.2935 17.9573 35.1196 18.4234 34.7092 18.6092C34.2998 18.7944 33.8103 18.6294 33.6115 18.2442Z" fill="white"/>
<path fill-rule="evenodd" clip-rule="evenodd" d="M19.1596 34.353C17.1901 36.3306 14.7911 37.2126 11.7356 36.0442C11.0611 35.7863 10.6118 35.4797 9.87831 34.6783C9.76014 34.5492 10.6812 35.9379 12.2683 37.107C14.3144 38.6136 18.4522 38.8987 20.6715 37.607C21.0321 37.3969 21.3322 37.1606 21.5736 36.9111C22.2519 36.2094 22.4674 35.4 22.2624 34.76C21.9124 33.6657 20.4402 33.0674 19.1596 34.353Z" fill="#007CFA"/>
<path fill-rule="evenodd" clip-rule="evenodd" d="M14.2684 33.3847C14.1725 34.2916 13.4076 35.0906 12.2852 35.5306C13.5331 35.6182 14.7979 34.8731 15.1644 33.599C15.1991 33.3588 15.0267 33.116 14.7792 33.0568C14.5317 32.9979 14.3028 33.1446 14.2684 33.3847Z" fill="white"/>
<path fill-rule="evenodd" clip-rule="evenodd" d="M19.5744 24.792C18.3716 22.7433 16.7417 21.5241 14.2243 21.2189C9.5014 20.6466 5.80569 24.6547 6.06253 28.9621C6.09892 29.5714 6.24353 30.2556 6.35366 30.8558C5.89906 29.9666 5.82208 29.9806 5.65575 29.0037C4.7894 23.9117 9.67749 19.1593 15.2884 20.2816C17.945 20.8127 19.4652 22.0685 20.8192 24.2187L19.5744 24.792Z" fill="#1F1F1F"/>
<path fill-rule="evenodd" clip-rule="evenodd" d="M20.6725 14.0286C21.3964 16.2586 20.9381 15.8249 23.2944 16.51C20.9381 17.1951 21.3964 16.7614 20.6725 18.9914C19.9489 16.7614 20.4071 17.1951 18.0508 16.51C20.4071 15.8249 19.9489 16.2588 20.6725 14.0286Z" fill="white"/>
<path fill-rule="evenodd" clip-rule="evenodd" d="M24.2883 14.0111C24.5448 14.8016 24.3824 14.6477 25.2174 14.8907C24.3824 15.1334 24.5448 14.9796 24.2883 15.7699C24.0317 14.9796 24.1943 15.1334 23.3594 14.8907C24.1943 14.6477 24.0317 14.8016 24.2883 14.0111Z" fill="white"/>
<path fill-rule="evenodd" clip-rule="evenodd" d="M25.62 16.75C26.0753 18.1529 25.7871 17.8802 27.2692 18.311C25.7871 18.7422 26.0752 18.4692 25.62 19.872C25.1646 18.4692 25.4531 18.742 23.9707 18.311C25.4531 17.8802 25.1646 18.153 25.62 16.75Z" fill="white"/>
<path fill-rule="evenodd" clip-rule="evenodd" d="M28.7158 30.6766C26.84 32.4835 28.1159 33.7419 25.0679 36.036C27.4492 33.6294 26.1425 31.7429 27.7396 29.7478C28.0103 29.4927 28.4487 29.4937 28.7183 29.7502C28.9883 30.0065 28.9871 30.4214 28.7158 30.6766Z" fill="white"/>
<path fill-rule="evenodd" clip-rule="evenodd" d="M20.9171 34.9793C21.0465 35.8826 20.4982 36.8276 19.5146 37.5022C20.7501 37.3132 21.7974 36.3107 21.8411 34.9907C21.816 34.7496 21.5889 34.5516 21.3337 34.5481C21.0783 34.5451 20.8918 34.738 20.9171 34.9793Z" fill="white"/>
<path fill-rule="evenodd" clip-rule="evenodd" d="M32.08 35.1851C30.491 38.33 27.4806 40.1832 23.8579 41.2214C19.4211 42.4929 14.3915 42.2451 10.3003 40.1967C8.62 39.3554 6.52319 37.7995 5.39258 36.3214L6.2494 37.0237C10.1657 40.2075 14.556 41.5305 19.7092 41.0067C24.116 40.5589 28.7836 38.6468 30.7428 34.7575C31.3642 33.5242 32.6733 34.0104 32.08 35.1851Z" fill="#1F1F1F"/>
<path fill-rule="evenodd" clip-rule="evenodd" d="M30.8788 20.4393L38.4331 34.5756L36.3783 35.5563L28.8237 21.4206L30.8788 20.4393Z" fill="#FFC702"/>
<path fill-rule="evenodd" clip-rule="evenodd" d="M18.7725 24.7534L39.7726 14.6995L40.809 16.6444L19.8091 26.6984L18.7725 24.7534Z" fill="#FFC702"/>
<path fill-rule="evenodd" clip-rule="evenodd" d="M18.6348 24.4355L39.635 14.3817L39.9334 15.0019L18.9331 25.0557L18.6348 24.4355Z" fill="white"/>
<path fill-rule="evenodd" clip-rule="evenodd" d="M36.9679 30.5164L41.3805 38.8821L38.1356 40.4449L33.7227 32.0794L33.7497 30.5738L35.8248 29.6752L36.9679 30.5164Z" fill="#1F1F1F"/>
<path fill-rule="evenodd" clip-rule="evenodd" d="M41.2787 38.6493L37.8722 40.1798C37.6215 40.2925 37.5135 40.5791 37.6323 40.8166C37.7516 41.0539 38.0543 41.1561 38.3053 41.0434L41.7118 39.5128C41.9627 39.4002 42.0705 39.1135 41.9514 38.8761C41.8324 38.6385 41.5298 38.5364 41.2787 38.6493Z" fill="#1F1F1F"/>
<path fill-rule="evenodd" clip-rule="evenodd" d="M40.5503 38.6834C40.6052 38.7924 40.5563 38.9224 40.4414 38.9744C40.3264 39.0261 40.1889 38.9797 40.1342 38.8712L36.316 31.299L35.3934 30.7259C35.2869 30.6601 35.257 30.525 35.3266 30.424C35.3963 30.3232 35.5392 30.2949 35.6459 30.3607L36.6166 30.964C36.6534 30.9852 36.6848 31.0166 36.7047 31.0564L40.5503 38.6834Z" fill="white"/>
<path d="M19.7023 26.8913L40.9116 16.7506L40.7049 16.3633L19.4956 26.5041L19.7023 26.8913Z" fill="#1F1F1F"/>
<path fill-rule="evenodd" clip-rule="evenodd" d="M29.5098 21.0864C28.7635 21.5174 27.5195 20.5465 27.5195 21.4347C27.5195 22.7904 28.6806 23.889 30.1126 23.889C31.5447 23.889 32.7059 22.7902 32.7059 21.4347C32.7059 20.7333 32.3952 20.1009 31.897 19.6536C31.5145 19.3101 29.7975 20.9203 29.5098 21.0864Z" fill="#FFC702"/>
<path fill-rule="evenodd" clip-rule="evenodd" d="M31.1201 22.2565C31.9906 21.4363 31.4537 20.5728 31.4566 19.7888C32.4344 20.6191 32.4746 21.8636 31.7119 22.8436L31.1201 22.2565Z" fill="white"/>
<path fill-rule="evenodd" clip-rule="evenodd" d="M28.8936 39.4332C30.1891 39.4708 31.021 39.9788 31.6934 40.4735C35.7887 43.4851 37.2649 38.1087 33.2769 37.8074C31.8898 37.7024 30.1638 38.3563 28.8936 39.4332Z" fill="#007CFA"/>
<path fill-rule="evenodd" clip-rule="evenodd" d="M34.2344 39.7185C33.8507 38.8911 32.7258 38.4774 31.811 38.4015C33.0348 38.0684 34.2929 38.2226 35.0651 39.338C35.1762 39.5551 35.08 39.8163 34.8506 39.9214C34.6214 40.0265 34.3455 39.936 34.2344 39.7185Z" fill="white"/>
<path fill-rule="evenodd" clip-rule="evenodd" d="M35.3622 40.6795C34.9221 41.8411 33.5045 41.9473 32.5224 41.5179C31.1969 40.9386 31.2559 40.0354 29.1494 39.4521C32.0483 39.1674 32.6957 42.445 35.3622 40.6795Z" fill="#1F1F1F"/>
<path fill-rule="evenodd" clip-rule="evenodd" d="M30.8282 0.0174561C31.5521 2.24751 31.0937 1.81379 33.45 2.4989C31.0939 3.184 31.5521 2.75028 30.8282 4.98033C30.1044 2.75028 30.5626 3.184 28.2065 2.4989C30.5626 1.81379 30.1044 2.24751 30.8282 0.0174561Z" fill="#007CFA"/>
<path fill-rule="evenodd" clip-rule="evenodd" d="M34.4458 0C34.7023 0.790239 34.5398 0.63659 35.3747 0.879321C34.5398 1.12224 34.7023 0.968228 34.4458 1.75865C34.1892 0.96841 34.3517 1.12224 33.5166 0.879321C34.3517 0.63677 34.1894 0.790239 34.4458 0Z" fill="#007CFA"/>
<path fill-rule="evenodd" clip-rule="evenodd" d="M35.7757 2.73914C36.2313 4.14198 35.9428 3.86913 37.4251 4.30014C35.9428 4.73114 36.2311 4.45829 35.7757 5.86114C35.3203 4.45829 35.6086 4.73096 34.1265 4.30014C35.6086 3.86895 35.3203 4.14198 35.7757 2.73914Z" fill="#007CFA"/>
<path fill-rule="evenodd" clip-rule="evenodd" d="M17.4308 27.6305C18.1544 29.8606 17.6961 29.427 20.0523 30.1121C17.6961 30.7971 18.1544 30.3634 17.4308 32.5936C16.7069 30.3635 17.1652 30.7971 14.8091 30.1121C17.1652 29.427 16.7068 29.8608 17.4308 27.6305Z" fill="white"/>
<path fill-rule="evenodd" clip-rule="evenodd" d="M21.0482 27.613C21.3048 28.4034 21.1423 28.2496 21.9773 28.4924C21.1423 28.7353 21.3048 28.5814 21.0482 29.3719C20.7917 28.5814 20.9542 28.7353 20.1191 28.4924C20.9542 28.2498 20.7917 28.4034 21.0482 27.613Z" fill="white"/>
<path fill-rule="evenodd" clip-rule="evenodd" d="M22.3784 30.3524C22.8338 31.7553 22.5455 31.4824 24.0277 31.9134C22.5455 32.3444 22.8336 32.0714 22.3784 33.4744C21.923 32.0714 22.2111 32.3443 20.729 31.9134C22.2111 31.4822 21.9232 31.7553 22.3784 30.3524Z" fill="white"/>
</svg>
