<svg width="105" height="99" viewBox="0 0 105 99" fill="none" xmlns="http://www.w3.org/2000/svg">
<g opacity="0.3">
<path opacity="0.5" d="M22.5 16.5C28.9062 16.6563 34.2188 18.8438 38.4375 23.0625C42.6562 27.2812 44.8438 32.5938 45 39V61.5C44.8438 69.9375 41.875 76.9688 36.0938 82.5938C30.4688 88.375 23.4375 91.3438 15 91.5C12.8125 91.5 11.0156 90.7969 9.60938 89.3906C8.20312 87.9844 7.5 86.1875 7.5 84C7.5 81.8125 8.20312 80.0156 9.60938 78.6094C11.0156 77.2031 12.8125 76.5 15 76.5C19.2188 76.3438 22.7344 74.8594 25.5469 72.0469C28.3594 69.2344 29.8438 65.7188 30 61.5V60.0938C27.6562 61.0312 25.1562 61.5 22.5 61.5C16.0938 61.3438 10.7812 59.1562 6.5625 54.9375C2.34375 50.7188 0.15625 45.4062 0 39C0.15625 32.5938 2.34375 27.2812 6.5625 23.0625C10.7812 18.8438 16.0938 16.6563 22.5 16.5ZM105 39V61.5C104.844 69.9375 101.875 76.9688 96.0938 82.5938C90.4688 88.375 83.4375 91.3438 75 91.5C72.8125 91.5 71.0156 90.7969 69.6094 89.3906C68.2031 87.9844 67.5 86.1875 67.5 84C67.5 81.8125 68.2031 80.0156 69.6094 78.6094C71.0156 77.2031 72.8125 76.5 75 76.5C79.2188 76.3438 82.7344 74.8594 85.5469 72.0469C88.3594 69.2344 89.8438 65.7188 90 61.5V60.0938C87.6562 61.0312 85.1562 61.5 82.5 61.5C76.0938 61.3438 70.7812 59.1562 66.5625 54.9375C62.3438 50.7188 60.1563 45.4062 60 39C60.1563 32.5938 62.3438 27.2812 66.5625 23.0625C70.7812 18.8438 76.0938 16.6563 82.5 16.5C88.9062 16.6563 94.2188 18.8438 98.4375 23.0625C102.656 27.2812 104.844 32.5938 105 39Z" fill="#068FFF"/>
</g>
</svg>
